# xmcd
#
# Track frame offsets: 
#        150
#        14940
#        28520
#        40940
#        53012
#        64335
#        78495
#        91940
#        106035
#        119747
#        132492
#        144367
#        157917
#        168825
#        181992
#        193125
#        205582
#        217512
#        229125
#        242030
#        253815
#        264642
#        277645
#        291567
#        303957
#
# Disc length: 4209 seconds
#
# Revision: 1
# Processed by: cddbd v1.5.2PL0 Copyright (c) Steve Scherf et al.
# Submitted via: ExactAudioCopyFreeDBPlugin 1.0
#
DISCID=62106f19
DTITLE=Roy Rogers - The King Of The Cowboys
DYEAR=1998
DGENRE=Country
TTITLE0=Tumbling Tumble Weed (The Sons of the Pioneers, 1936)
TTITLE1=The Devils Great-Grandson (The Sons of the Pioneers, 1937)
TTITLE2=When The Golden Train Comes Down (The Sons of the Pioneers, 19
TTITLE2=37)
TTITLE3=Hold That Critter Down (The Sons of the Pioneers, 1937)
TTITLE4=Hi-Yo Silver (1938)
TTITLE5=Round That Couple, Go Through And Swing (w. Spade Cooley and His
TTITLE5=Buckle Busters, 1940)
TTITLE6=Along The Navajo Trail (w. The Sons of the Pioneers, 1945)
TTITLE7=Rock Me To Sleep In My Saddle (w. The Sons of the Pioneers, 19
TTITLE7=46)
TTITLE8=A Little White Cross On The Hill (w. The Sons of the Pioneers,
TTITLE8=1946)
TTITLE9=I Can't Go On This Way (w. The Sons of the Pioneers, 1946)
TTITLE10=I'm Restless (w. Country Washbourne and HO, 1946)
TTITLE11=My Heart Went That That-A-Way (w. Country Washbourne and HO, 19
TTITLE11=46)
TTITLE12=My Chickashay Gal (w. Country Washbourne and HO, 1946)
TTITLE13=Dangerous Ground (w. Country Washbourne and HO, 1947)
TTITLE14=Make-Believe Cowboy (w. Country Washbourne and HO, 1947)
TTITLE15=On The Old Spanish Trail (w. Spade Cooley and His Western Swing
TTITLE15=Band, 1947)
TTITLE16=San Fernando Valley (w. Dave Boehme and HO, 1947)
TTITLE17=Roll On, Texas Moon (w. Dave Boehme and HO, 1947)
TTITLE18=Don't Fence Me In (w. Dave Boehme and HO, 1947)
TTITLE19=Yellow Rose Of Texas (w. Dave Boehme and HO, 1947)
TTITLE20=Hawaiian Cowboy (w. Dave Boehme and HO, 1947)
TTITLE21=Blue Shadows On The Trail (w. The Sons of the Pioneers, 1947)
TTITLE22=Pecos Bill (w. The Sons of the Pioneers, 1947)
TTITLE23=Betsy (w. Billy Hill and HO, 1947)
TTITLE24=Home On The Range (w. The Sons of the Pioneers, 1947)
EXTD=Tracks 1 to 5 as Leonard Slye, with the Sons of the Pioneers
EXTT0=
EXTT1=
EXTT2=
EXTT3=
EXTT4=
EXTT5=
EXTT6=
EXTT7=
EXTT8=
EXTT9=
EXTT10=
EXTT11=
EXTT12=
EXTT13=
EXTT14=
EXTT15=
EXTT16=
EXTT17=
EXTT18=
EXTT19=
EXTT20=
EXTT21=
EXTT22=
EXTT23=
EXTT24=
PLAYORDER=
